<mxfile host="Electron" agent="Mozilla/5.0 (Windows NT 10.0; Win64; x64) AppleWebKit/537.36 (KHTML, like Gecko) draw.io/24.7.17 Chrome/128.0.6613.36 Electron/32.0.1 Safari/537.36" version="24.7.17">
  <diagram name="Page-1" id="e56a1550-8fbb-45ad-956c-1786394a9013">
    <mxGraphModel dx="2893" dy="1105" grid="1" gridSize="10" guides="1" tooltips="1" connect="1" arrows="1" fold="1" page="1" pageScale="1" pageWidth="1100" pageHeight="850" background="none" math="0" shadow="0">
      <root>
        <mxCell id="0" />
        <mxCell id="1" parent="0" />
        <mxCell id="2e49270ec7c68f3f-80" value="Books" style="swimlane;html=1;fontStyle=0;childLayout=stackLayout;horizontal=1;startSize=26;horizontalStack=0;resizeParent=1;resizeLast=0;collapsible=1;marginBottom=0;swimlaneFillColor=#ffffff;align=center;rounded=0;shadow=0;comic=0;labelBackgroundColor=none;strokeWidth=1;fontFamily=Verdana;fontSize=14" parent="1" vertex="1">
          <mxGeometry x="-490" y="146" width="160" height="248" as="geometry" />
        </mxCell>
        <mxCell id="2e49270ec7c68f3f-81" value="Book ID" style="shape=partialRectangle;top=0;left=0;right=0;bottom=1;html=1;align=left;verticalAlign=middle;spacingLeft=34;spacingRight=4;whiteSpace=wrap;overflow=hidden;rotatable=0;points=[[0,0.5],[1,0.5]];portConstraint=eastwest;dropTarget=0;fontStyle=5;" parent="2e49270ec7c68f3f-80" vertex="1">
          <mxGeometry y="26" width="160" height="30" as="geometry" />
        </mxCell>
        <mxCell id="2e49270ec7c68f3f-82" value="PK" style="shape=partialRectangle;top=0;left=0;bottom=0;html=1;align=left;verticalAlign=middle;spacingLeft=4;spacingRight=4;whiteSpace=wrap;overflow=hidden;rotatable=0;points=[];portConstraint=eastwest;part=1;" parent="2e49270ec7c68f3f-81" vertex="1" connectable="0">
          <mxGeometry width="30" height="30" as="geometry" />
        </mxCell>
        <mxCell id="2e49270ec7c68f3f-83" value="Title" style="shape=partialRectangle;top=0;left=0;right=0;bottom=0;html=1;align=left;verticalAlign=top;spacingLeft=34;spacingRight=4;whiteSpace=wrap;overflow=hidden;rotatable=0;points=[[0,0.5],[1,0.5]];portConstraint=eastwest;dropTarget=0;" parent="2e49270ec7c68f3f-80" vertex="1">
          <mxGeometry y="56" width="160" height="26" as="geometry" />
        </mxCell>
        <mxCell id="2e49270ec7c68f3f-84" value="" style="shape=partialRectangle;top=0;left=0;bottom=0;html=1;align=left;verticalAlign=top;spacingLeft=4;spacingRight=4;whiteSpace=wrap;overflow=hidden;rotatable=0;points=[];portConstraint=eastwest;part=1;" parent="2e49270ec7c68f3f-83" vertex="1" connectable="0">
          <mxGeometry width="30" height="26" as="geometry" />
        </mxCell>
        <mxCell id="2e49270ec7c68f3f-85" value="Aurthor" style="shape=partialRectangle;top=0;left=0;right=0;bottom=0;html=1;align=left;verticalAlign=top;spacingLeft=34;spacingRight=4;whiteSpace=wrap;overflow=hidden;rotatable=0;points=[[0,0.5],[1,0.5]];portConstraint=eastwest;dropTarget=0;" parent="2e49270ec7c68f3f-80" vertex="1">
          <mxGeometry y="82" width="160" height="26" as="geometry" />
        </mxCell>
        <mxCell id="2e49270ec7c68f3f-86" value="FG" style="shape=partialRectangle;top=0;left=0;bottom=0;html=1;align=left;verticalAlign=top;spacingLeft=4;spacingRight=4;whiteSpace=wrap;overflow=hidden;rotatable=0;points=[];portConstraint=eastwest;part=1;" parent="2e49270ec7c68f3f-85" vertex="1" connectable="0">
          <mxGeometry width="30" height="26" as="geometry" />
        </mxCell>
        <mxCell id="2e49270ec7c68f3f-87" value="&lt;div&gt;ISBN&lt;/div&gt;&lt;div&gt;&lt;br&gt;&lt;/div&gt;" style="shape=partialRectangle;top=0;left=0;right=0;bottom=0;html=1;align=left;verticalAlign=top;spacingLeft=34;spacingRight=4;whiteSpace=wrap;overflow=hidden;rotatable=0;points=[[0,0.5],[1,0.5]];portConstraint=eastwest;dropTarget=0;" parent="2e49270ec7c68f3f-80" vertex="1">
          <mxGeometry y="108" width="160" height="26" as="geometry" />
        </mxCell>
        <mxCell id="2e49270ec7c68f3f-88" value="" style="shape=partialRectangle;top=0;left=0;bottom=0;html=1;align=left;verticalAlign=top;spacingLeft=4;spacingRight=4;whiteSpace=wrap;overflow=hidden;rotatable=0;points=[];portConstraint=eastwest;part=1;" parent="2e49270ec7c68f3f-87" vertex="1" connectable="0">
          <mxGeometry width="30" height="26" as="geometry" />
        </mxCell>
        <mxCell id="2e49270ec7c68f3f-89" value="" style="shape=partialRectangle;top=0;left=0;right=0;bottom=0;html=1;align=left;verticalAlign=top;spacingLeft=34;spacingRight=4;whiteSpace=wrap;overflow=hidden;rotatable=0;points=[[0,0.5],[1,0.5]];portConstraint=eastwest;dropTarget=0;" parent="2e49270ec7c68f3f-80" vertex="1">
          <mxGeometry y="134" width="160" height="10" as="geometry" />
        </mxCell>
        <mxCell id="2e49270ec7c68f3f-90" value="" style="shape=partialRectangle;top=0;left=0;bottom=0;html=1;align=left;verticalAlign=top;spacingLeft=4;spacingRight=4;whiteSpace=wrap;overflow=hidden;rotatable=0;points=[];portConstraint=eastwest;part=1;" parent="2e49270ec7c68f3f-89" vertex="1" connectable="0">
          <mxGeometry width="30" height="10" as="geometry" />
        </mxCell>
        <mxCell id="cGAlOVvJwk_Bxds6Nf4A-12" value="Publication date" style="shape=partialRectangle;top=0;left=0;right=0;bottom=0;html=1;align=left;verticalAlign=top;spacingLeft=34;spacingRight=4;whiteSpace=wrap;overflow=hidden;rotatable=0;points=[[0,0.5],[1,0.5]];portConstraint=eastwest;dropTarget=0;" parent="2e49270ec7c68f3f-80" vertex="1">
          <mxGeometry y="144" width="160" height="26" as="geometry" />
        </mxCell>
        <mxCell id="cGAlOVvJwk_Bxds6Nf4A-13" value="" style="shape=partialRectangle;top=0;left=0;bottom=0;html=1;align=left;verticalAlign=top;spacingLeft=4;spacingRight=4;whiteSpace=wrap;overflow=hidden;rotatable=0;points=[];portConstraint=eastwest;part=1;" parent="cGAlOVvJwk_Bxds6Nf4A-12" vertex="1" connectable="0">
          <mxGeometry width="30" height="26" as="geometry" />
        </mxCell>
        <mxCell id="cGAlOVvJwk_Bxds6Nf4A-14" value="genre" style="shape=partialRectangle;top=0;left=0;right=0;bottom=0;html=1;align=left;verticalAlign=top;spacingLeft=34;spacingRight=4;whiteSpace=wrap;overflow=hidden;rotatable=0;points=[[0,0.5],[1,0.5]];portConstraint=eastwest;dropTarget=0;" parent="2e49270ec7c68f3f-80" vertex="1">
          <mxGeometry y="170" width="160" height="26" as="geometry" />
        </mxCell>
        <mxCell id="cGAlOVvJwk_Bxds6Nf4A-15" value="" style="shape=partialRectangle;top=0;left=0;bottom=0;html=1;align=left;verticalAlign=top;spacingLeft=4;spacingRight=4;whiteSpace=wrap;overflow=hidden;rotatable=0;points=[];portConstraint=eastwest;part=1;" parent="cGAlOVvJwk_Bxds6Nf4A-14" vertex="1" connectable="0">
          <mxGeometry width="30" height="26" as="geometry" />
        </mxCell>
        <mxCell id="cGAlOVvJwk_Bxds6Nf4A-31" value="Additaional Details" style="shape=partialRectangle;top=0;left=0;right=0;bottom=0;html=1;align=left;verticalAlign=top;spacingLeft=34;spacingRight=4;whiteSpace=wrap;overflow=hidden;rotatable=0;points=[[0,0.5],[1,0.5]];portConstraint=eastwest;dropTarget=0;" parent="2e49270ec7c68f3f-80" vertex="1">
          <mxGeometry y="196" width="160" height="26" as="geometry" />
        </mxCell>
        <mxCell id="cGAlOVvJwk_Bxds6Nf4A-32" value="" style="shape=partialRectangle;top=0;left=0;bottom=0;html=1;align=left;verticalAlign=top;spacingLeft=4;spacingRight=4;whiteSpace=wrap;overflow=hidden;rotatable=0;points=[];portConstraint=eastwest;part=1;" parent="cGAlOVvJwk_Bxds6Nf4A-31" vertex="1" connectable="0">
          <mxGeometry width="30" height="26" as="geometry" />
        </mxCell>
        <mxCell id="cGAlOVvJwk_Bxds6Nf4A-33" value="&lt;div&gt;Book Copies&lt;/div&gt;&lt;div&gt;&lt;br&gt;&lt;/div&gt;" style="shape=partialRectangle;top=0;left=0;right=0;bottom=0;html=1;align=left;verticalAlign=top;spacingLeft=34;spacingRight=4;whiteSpace=wrap;overflow=hidden;rotatable=0;points=[[0,0.5],[1,0.5]];portConstraint=eastwest;dropTarget=0;" parent="2e49270ec7c68f3f-80" vertex="1">
          <mxGeometry y="222" width="160" height="26" as="geometry" />
        </mxCell>
        <mxCell id="cGAlOVvJwk_Bxds6Nf4A-34" value="FG" style="shape=partialRectangle;top=0;left=0;bottom=0;html=1;align=left;verticalAlign=top;spacingLeft=4;spacingRight=4;whiteSpace=wrap;overflow=hidden;rotatable=0;points=[];portConstraint=eastwest;part=1;" parent="cGAlOVvJwk_Bxds6Nf4A-33" vertex="1" connectable="0">
          <mxGeometry width="30" height="26" as="geometry" />
        </mxCell>
        <mxCell id="XKE0ulMypkvAozORCoBl-14" style="edgeStyle=orthogonalEdgeStyle;rounded=0;orthogonalLoop=1;jettySize=auto;html=1;startArrow=ERone;startFill=0;endArrow=ERzeroToMany;endFill=0;" parent="1" source="cGAlOVvJwk_Bxds6Nf4A-1" target="2e49270ec7c68f3f-85" edge="1">
          <mxGeometry relative="1" as="geometry" />
        </mxCell>
        <mxCell id="cGAlOVvJwk_Bxds6Nf4A-1" value="Aurthor" style="swimlane;html=1;fontStyle=0;childLayout=stackLayout;horizontal=1;startSize=26;horizontalStack=0;resizeParent=1;resizeLast=0;collapsible=1;marginBottom=0;swimlaneFillColor=#ffffff;align=center;rounded=0;shadow=0;comic=0;labelBackgroundColor=none;strokeWidth=1;fontFamily=Verdana;fontSize=14" parent="1" vertex="1">
          <mxGeometry x="-790" y="134" width="160" height="120" as="geometry" />
        </mxCell>
        <mxCell id="cGAlOVvJwk_Bxds6Nf4A-2" value="Aurthor ID" style="shape=partialRectangle;top=0;left=0;right=0;bottom=1;html=1;align=left;verticalAlign=middle;spacingLeft=34;spacingRight=4;whiteSpace=wrap;overflow=hidden;rotatable=0;points=[[0,0.5],[1,0.5]];portConstraint=eastwest;dropTarget=0;fontStyle=5;" parent="cGAlOVvJwk_Bxds6Nf4A-1" vertex="1">
          <mxGeometry y="26" width="160" height="30" as="geometry" />
        </mxCell>
        <mxCell id="cGAlOVvJwk_Bxds6Nf4A-3" value="PK" style="shape=partialRectangle;top=0;left=0;bottom=0;html=1;align=left;verticalAlign=middle;spacingLeft=4;spacingRight=4;whiteSpace=wrap;overflow=hidden;rotatable=0;points=[];portConstraint=eastwest;part=1;" parent="cGAlOVvJwk_Bxds6Nf4A-2" vertex="1" connectable="0">
          <mxGeometry width="30" height="30" as="geometry" />
        </mxCell>
        <mxCell id="cGAlOVvJwk_Bxds6Nf4A-4" value="Name" style="shape=partialRectangle;top=0;left=0;right=0;bottom=0;html=1;align=left;verticalAlign=top;spacingLeft=34;spacingRight=4;whiteSpace=wrap;overflow=hidden;rotatable=0;points=[[0,0.5],[1,0.5]];portConstraint=eastwest;dropTarget=0;" parent="cGAlOVvJwk_Bxds6Nf4A-1" vertex="1">
          <mxGeometry y="56" width="160" height="26" as="geometry" />
        </mxCell>
        <mxCell id="cGAlOVvJwk_Bxds6Nf4A-5" value="" style="shape=partialRectangle;top=0;left=0;bottom=0;html=1;align=left;verticalAlign=top;spacingLeft=4;spacingRight=4;whiteSpace=wrap;overflow=hidden;rotatable=0;points=[];portConstraint=eastwest;part=1;" parent="cGAlOVvJwk_Bxds6Nf4A-4" vertex="1" connectable="0">
          <mxGeometry width="30" height="26" as="geometry" />
        </mxCell>
        <mxCell id="cGAlOVvJwk_Bxds6Nf4A-6" value="Books" style="shape=partialRectangle;top=0;left=0;right=0;bottom=0;html=1;align=left;verticalAlign=top;spacingLeft=34;spacingRight=4;whiteSpace=wrap;overflow=hidden;rotatable=0;points=[[0,0.5],[1,0.5]];portConstraint=eastwest;dropTarget=0;" parent="cGAlOVvJwk_Bxds6Nf4A-1" vertex="1">
          <mxGeometry y="82" width="160" height="26" as="geometry" />
        </mxCell>
        <mxCell id="cGAlOVvJwk_Bxds6Nf4A-7" value="FG" style="shape=partialRectangle;top=0;left=0;bottom=0;html=1;align=left;verticalAlign=top;spacingLeft=4;spacingRight=4;whiteSpace=wrap;overflow=hidden;rotatable=0;points=[];portConstraint=eastwest;part=1;" parent="cGAlOVvJwk_Bxds6Nf4A-6" vertex="1" connectable="0">
          <mxGeometry width="30" height="26" as="geometry" />
        </mxCell>
        <mxCell id="cGAlOVvJwk_Bxds6Nf4A-10" value="" style="shape=partialRectangle;top=0;left=0;right=0;bottom=0;html=1;align=left;verticalAlign=top;spacingLeft=34;spacingRight=4;whiteSpace=wrap;overflow=hidden;rotatable=0;points=[[0,0.5],[1,0.5]];portConstraint=eastwest;dropTarget=0;" parent="cGAlOVvJwk_Bxds6Nf4A-1" vertex="1">
          <mxGeometry y="108" width="160" height="10" as="geometry" />
        </mxCell>
        <mxCell id="cGAlOVvJwk_Bxds6Nf4A-11" value="" style="shape=partialRectangle;top=0;left=0;bottom=0;html=1;align=left;verticalAlign=top;spacingLeft=4;spacingRight=4;whiteSpace=wrap;overflow=hidden;rotatable=0;points=[];portConstraint=eastwest;part=1;" parent="cGAlOVvJwk_Bxds6Nf4A-10" vertex="1" connectable="0">
          <mxGeometry width="30" height="10" as="geometry" />
        </mxCell>
        <mxCell id="cGAlOVvJwk_Bxds6Nf4A-80" style="edgeStyle=orthogonalEdgeStyle;rounded=0;orthogonalLoop=1;jettySize=auto;html=1;entryX=1;entryY=0.5;entryDx=0;entryDy=0;startArrow=ERone;startFill=0;endArrow=ERone;endFill=0;" parent="1" source="cGAlOVvJwk_Bxds6Nf4A-35" target="cGAlOVvJwk_Bxds6Nf4A-33" edge="1">
          <mxGeometry relative="1" as="geometry" />
        </mxCell>
        <mxCell id="cGAlOVvJwk_Bxds6Nf4A-35" value="Book Copies" style="swimlane;html=1;fontStyle=0;childLayout=stackLayout;horizontal=1;startSize=26;horizontalStack=0;resizeParent=1;resizeLast=0;collapsible=1;marginBottom=0;swimlaneFillColor=#ffffff;align=center;rounded=0;shadow=0;comic=0;labelBackgroundColor=none;strokeWidth=1;fontFamily=Verdana;fontSize=14" parent="1" vertex="1">
          <mxGeometry x="-210" y="301" width="160" height="90" as="geometry" />
        </mxCell>
        <mxCell id="cGAlOVvJwk_Bxds6Nf4A-36" value="Copy ID" style="shape=partialRectangle;top=0;left=0;right=0;bottom=1;html=1;align=left;verticalAlign=middle;spacingLeft=34;spacingRight=4;whiteSpace=wrap;overflow=hidden;rotatable=0;points=[[0,0.5],[1,0.5]];portConstraint=eastwest;dropTarget=0;fontStyle=5;" parent="cGAlOVvJwk_Bxds6Nf4A-35" vertex="1">
          <mxGeometry y="26" width="160" height="30" as="geometry" />
        </mxCell>
        <mxCell id="cGAlOVvJwk_Bxds6Nf4A-37" value="PK" style="shape=partialRectangle;top=0;left=0;bottom=0;html=1;align=left;verticalAlign=middle;spacingLeft=4;spacingRight=4;whiteSpace=wrap;overflow=hidden;rotatable=0;points=[];portConstraint=eastwest;part=1;" parent="cGAlOVvJwk_Bxds6Nf4A-36" vertex="1" connectable="0">
          <mxGeometry width="30" height="30" as="geometry" />
        </mxCell>
        <mxCell id="cGAlOVvJwk_Bxds6Nf4A-42" value="&lt;span class=&quot;fontstyle0&quot;&gt;availability&lt;/span&gt; &lt;div&gt;&lt;br/&gt;&lt;/div&gt;" style="shape=partialRectangle;top=0;left=0;right=0;bottom=0;html=1;align=left;verticalAlign=top;spacingLeft=34;spacingRight=4;whiteSpace=wrap;overflow=hidden;rotatable=0;points=[[0,0.5],[1,0.5]];portConstraint=eastwest;dropTarget=0;" parent="cGAlOVvJwk_Bxds6Nf4A-35" vertex="1">
          <mxGeometry y="56" width="160" height="26" as="geometry" />
        </mxCell>
        <mxCell id="cGAlOVvJwk_Bxds6Nf4A-43" value="" style="shape=partialRectangle;top=0;left=0;bottom=0;html=1;align=left;verticalAlign=top;spacingLeft=4;spacingRight=4;whiteSpace=wrap;overflow=hidden;rotatable=0;points=[];portConstraint=eastwest;part=1;" parent="cGAlOVvJwk_Bxds6Nf4A-42" vertex="1" connectable="0">
          <mxGeometry width="30" height="26" as="geometry" />
        </mxCell>
        <mxCell id="oWk1t3dqGLM9DBorNE7X-27" style="edgeStyle=orthogonalEdgeStyle;rounded=0;orthogonalLoop=1;jettySize=auto;html=1;exitX=0.5;exitY=1;exitDx=0;exitDy=0;" edge="1" parent="1" source="cGAlOVvJwk_Bxds6Nf4A-46">
          <mxGeometry relative="1" as="geometry">
            <mxPoint x="629.3846153846152" y="450" as="targetPoint" />
          </mxGeometry>
        </mxCell>
        <mxCell id="cGAlOVvJwk_Bxds6Nf4A-46" value="Users" style="swimlane;html=1;fontStyle=0;childLayout=stackLayout;horizontal=1;startSize=26;horizontalStack=0;resizeParent=1;resizeLast=0;collapsible=1;marginBottom=0;swimlaneFillColor=#ffffff;align=center;rounded=0;shadow=0;comic=0;labelBackgroundColor=none;strokeWidth=1;fontFamily=Verdana;fontSize=14" parent="1" vertex="1">
          <mxGeometry x="550" y="250" width="160" height="200" as="geometry" />
        </mxCell>
        <mxCell id="cGAlOVvJwk_Bxds6Nf4A-47" value="User ID" style="shape=partialRectangle;top=0;left=0;right=0;bottom=1;html=1;align=left;verticalAlign=middle;spacingLeft=34;spacingRight=4;whiteSpace=wrap;overflow=hidden;rotatable=0;points=[[0,0.5],[1,0.5]];portConstraint=eastwest;dropTarget=0;fontStyle=5;" parent="cGAlOVvJwk_Bxds6Nf4A-46" vertex="1">
          <mxGeometry y="26" width="160" height="30" as="geometry" />
        </mxCell>
        <mxCell id="cGAlOVvJwk_Bxds6Nf4A-48" value="PK" style="shape=partialRectangle;top=0;left=0;bottom=0;html=1;align=left;verticalAlign=middle;spacingLeft=4;spacingRight=4;whiteSpace=wrap;overflow=hidden;rotatable=0;points=[];portConstraint=eastwest;part=1;" parent="cGAlOVvJwk_Bxds6Nf4A-47" vertex="1" connectable="0">
          <mxGeometry width="30" height="30" as="geometry" />
        </mxCell>
        <mxCell id="cGAlOVvJwk_Bxds6Nf4A-49" value="Library Card Number" style="shape=partialRectangle;top=0;left=0;right=0;bottom=0;html=1;align=left;verticalAlign=top;spacingLeft=34;spacingRight=4;whiteSpace=wrap;overflow=hidden;rotatable=0;points=[[0,0.5],[1,0.5]];portConstraint=eastwest;dropTarget=0;" parent="cGAlOVvJwk_Bxds6Nf4A-46" vertex="1">
          <mxGeometry y="56" width="160" height="26" as="geometry" />
        </mxCell>
        <mxCell id="cGAlOVvJwk_Bxds6Nf4A-50" value="" style="shape=partialRectangle;top=0;left=0;bottom=0;html=1;align=left;verticalAlign=top;spacingLeft=4;spacingRight=4;whiteSpace=wrap;overflow=hidden;rotatable=0;points=[];portConstraint=eastwest;part=1;" parent="cGAlOVvJwk_Bxds6Nf4A-49" vertex="1" connectable="0">
          <mxGeometry width="30" height="26" as="geometry" />
        </mxCell>
        <mxCell id="cGAlOVvJwk_Bxds6Nf4A-51" value="Person ID" style="shape=partialRectangle;top=0;left=0;right=0;bottom=0;html=1;align=left;verticalAlign=top;spacingLeft=34;spacingRight=4;whiteSpace=wrap;overflow=hidden;rotatable=0;points=[[0,0.5],[1,0.5]];portConstraint=eastwest;dropTarget=0;" parent="cGAlOVvJwk_Bxds6Nf4A-46" vertex="1">
          <mxGeometry y="82" width="160" height="26" as="geometry" />
        </mxCell>
        <mxCell id="cGAlOVvJwk_Bxds6Nf4A-52" value="FG" style="shape=partialRectangle;top=0;left=0;bottom=0;html=1;align=left;verticalAlign=top;spacingLeft=4;spacingRight=4;whiteSpace=wrap;overflow=hidden;rotatable=0;points=[];portConstraint=eastwest;part=1;" parent="cGAlOVvJwk_Bxds6Nf4A-51" vertex="1" connectable="0">
          <mxGeometry width="30" height="26" as="geometry" />
        </mxCell>
        <mxCell id="cGAlOVvJwk_Bxds6Nf4A-53" value="fines" style="shape=partialRectangle;top=0;left=0;right=0;bottom=0;html=1;align=left;verticalAlign=top;spacingLeft=34;spacingRight=4;whiteSpace=wrap;overflow=hidden;rotatable=0;points=[[0,0.5],[1,0.5]];portConstraint=eastwest;dropTarget=0;" parent="cGAlOVvJwk_Bxds6Nf4A-46" vertex="1">
          <mxGeometry y="108" width="160" height="26" as="geometry" />
        </mxCell>
        <mxCell id="cGAlOVvJwk_Bxds6Nf4A-54" value="FG" style="shape=partialRectangle;top=0;left=0;bottom=0;html=1;align=left;verticalAlign=top;spacingLeft=4;spacingRight=4;whiteSpace=wrap;overflow=hidden;rotatable=0;points=[];portConstraint=eastwest;part=1;" parent="cGAlOVvJwk_Bxds6Nf4A-53" vertex="1" connectable="0">
          <mxGeometry width="30" height="26" as="geometry" />
        </mxCell>
        <mxCell id="cGAlOVvJwk_Bxds6Nf4A-55" value="" style="shape=partialRectangle;top=0;left=0;right=0;bottom=0;html=1;align=left;verticalAlign=top;spacingLeft=34;spacingRight=4;whiteSpace=wrap;overflow=hidden;rotatable=0;points=[[0,0.5],[1,0.5]];portConstraint=eastwest;dropTarget=0;" parent="cGAlOVvJwk_Bxds6Nf4A-46" vertex="1">
          <mxGeometry y="134" width="160" height="10" as="geometry" />
        </mxCell>
        <mxCell id="cGAlOVvJwk_Bxds6Nf4A-56" value="" style="shape=partialRectangle;top=0;left=0;bottom=0;html=1;align=left;verticalAlign=top;spacingLeft=4;spacingRight=4;whiteSpace=wrap;overflow=hidden;rotatable=0;points=[];portConstraint=eastwest;part=1;" parent="cGAlOVvJwk_Bxds6Nf4A-55" vertex="1" connectable="0">
          <mxGeometry width="30" height="10" as="geometry" />
        </mxCell>
        <mxCell id="oWk1t3dqGLM9DBorNE7X-21" value="Email&lt;div&gt;&lt;br&gt;&lt;/div&gt;" style="shape=partialRectangle;top=0;left=0;right=0;bottom=0;html=1;align=left;verticalAlign=top;spacingLeft=34;spacingRight=4;whiteSpace=wrap;overflow=hidden;rotatable=0;points=[[0,0.5],[1,0.5]];portConstraint=eastwest;dropTarget=0;" vertex="1" parent="cGAlOVvJwk_Bxds6Nf4A-46">
          <mxGeometry y="144" width="160" height="26" as="geometry" />
        </mxCell>
        <mxCell id="oWk1t3dqGLM9DBorNE7X-22" value="" style="shape=partialRectangle;top=0;left=0;bottom=0;html=1;align=left;verticalAlign=top;spacingLeft=4;spacingRight=4;whiteSpace=wrap;overflow=hidden;rotatable=0;points=[];portConstraint=eastwest;part=1;" vertex="1" connectable="0" parent="oWk1t3dqGLM9DBorNE7X-21">
          <mxGeometry width="30" height="26" as="geometry" />
        </mxCell>
        <mxCell id="oWk1t3dqGLM9DBorNE7X-23" value="FaceBook&lt;div&gt;&lt;br&gt;&lt;/div&gt;" style="shape=partialRectangle;top=0;left=0;right=0;bottom=0;html=1;align=left;verticalAlign=top;spacingLeft=34;spacingRight=4;whiteSpace=wrap;overflow=hidden;rotatable=0;points=[[0,0.5],[1,0.5]];portConstraint=eastwest;dropTarget=0;" vertex="1" parent="cGAlOVvJwk_Bxds6Nf4A-46">
          <mxGeometry y="170" width="160" height="26" as="geometry" />
        </mxCell>
        <mxCell id="oWk1t3dqGLM9DBorNE7X-24" value="" style="shape=partialRectangle;top=0;left=0;bottom=0;html=1;align=left;verticalAlign=top;spacingLeft=4;spacingRight=4;whiteSpace=wrap;overflow=hidden;rotatable=0;points=[];portConstraint=eastwest;part=1;" vertex="1" connectable="0" parent="oWk1t3dqGLM9DBorNE7X-23">
          <mxGeometry width="30" height="26" as="geometry" />
        </mxCell>
        <mxCell id="oWk1t3dqGLM9DBorNE7X-20" style="edgeStyle=orthogonalEdgeStyle;rounded=0;orthogonalLoop=1;jettySize=auto;html=1;exitX=0.5;exitY=1;exitDx=0;exitDy=0;" edge="1" parent="1" source="cGAlOVvJwk_Bxds6Nf4A-57">
          <mxGeometry relative="1" as="geometry">
            <mxPoint x="949.3846153846152" y="380" as="targetPoint" />
          </mxGeometry>
        </mxCell>
        <mxCell id="cGAlOVvJwk_Bxds6Nf4A-57" value="Persons" style="swimlane;html=1;fontStyle=0;childLayout=stackLayout;horizontal=1;startSize=26;horizontalStack=0;resizeParent=1;resizeLast=0;collapsible=1;marginBottom=0;swimlaneFillColor=#ffffff;align=center;rounded=0;shadow=0;comic=0;labelBackgroundColor=none;strokeWidth=1;fontFamily=Verdana;fontSize=14" parent="1" vertex="1">
          <mxGeometry x="810" y="145" width="160" height="246" as="geometry" />
        </mxCell>
        <mxCell id="cGAlOVvJwk_Bxds6Nf4A-58" value="ID" style="shape=partialRectangle;top=0;left=0;right=0;bottom=1;html=1;align=left;verticalAlign=middle;spacingLeft=34;spacingRight=4;whiteSpace=wrap;overflow=hidden;rotatable=0;points=[[0,0.5],[1,0.5]];portConstraint=eastwest;dropTarget=0;fontStyle=5;" parent="cGAlOVvJwk_Bxds6Nf4A-57" vertex="1">
          <mxGeometry y="26" width="160" height="30" as="geometry" />
        </mxCell>
        <mxCell id="cGAlOVvJwk_Bxds6Nf4A-59" value="PK" style="shape=partialRectangle;top=0;left=0;bottom=0;html=1;align=left;verticalAlign=middle;spacingLeft=4;spacingRight=4;whiteSpace=wrap;overflow=hidden;rotatable=0;points=[];portConstraint=eastwest;part=1;" parent="cGAlOVvJwk_Bxds6Nf4A-58" vertex="1" connectable="0">
          <mxGeometry width="30" height="30" as="geometry" />
        </mxCell>
        <mxCell id="cGAlOVvJwk_Bxds6Nf4A-60" value="Name" style="shape=partialRectangle;top=0;left=0;right=0;bottom=0;html=1;align=left;verticalAlign=top;spacingLeft=34;spacingRight=4;whiteSpace=wrap;overflow=hidden;rotatable=0;points=[[0,0.5],[1,0.5]];portConstraint=eastwest;dropTarget=0;" parent="cGAlOVvJwk_Bxds6Nf4A-57" vertex="1">
          <mxGeometry y="56" width="160" height="26" as="geometry" />
        </mxCell>
        <mxCell id="cGAlOVvJwk_Bxds6Nf4A-61" value="" style="shape=partialRectangle;top=0;left=0;bottom=0;html=1;align=left;verticalAlign=top;spacingLeft=4;spacingRight=4;whiteSpace=wrap;overflow=hidden;rotatable=0;points=[];portConstraint=eastwest;part=1;" parent="cGAlOVvJwk_Bxds6Nf4A-60" vertex="1" connectable="0">
          <mxGeometry width="30" height="26" as="geometry" />
        </mxCell>
        <mxCell id="cGAlOVvJwk_Bxds6Nf4A-62" value="Contact Info" style="shape=partialRectangle;top=0;left=0;right=0;bottom=0;html=1;align=left;verticalAlign=top;spacingLeft=34;spacingRight=4;whiteSpace=wrap;overflow=hidden;rotatable=0;points=[[0,0.5],[1,0.5]];portConstraint=eastwest;dropTarget=0;" parent="cGAlOVvJwk_Bxds6Nf4A-57" vertex="1">
          <mxGeometry y="82" width="160" height="26" as="geometry" />
        </mxCell>
        <mxCell id="cGAlOVvJwk_Bxds6Nf4A-63" value="" style="shape=partialRectangle;top=0;left=0;bottom=0;html=1;align=left;verticalAlign=top;spacingLeft=4;spacingRight=4;whiteSpace=wrap;overflow=hidden;rotatable=0;points=[];portConstraint=eastwest;part=1;" parent="cGAlOVvJwk_Bxds6Nf4A-62" vertex="1" connectable="0">
          <mxGeometry width="30" height="26" as="geometry" />
        </mxCell>
        <mxCell id="cGAlOVvJwk_Bxds6Nf4A-64" value="" style="shape=partialRectangle;top=0;left=0;right=0;bottom=0;html=1;align=left;verticalAlign=top;spacingLeft=34;spacingRight=4;whiteSpace=wrap;overflow=hidden;rotatable=0;points=[[0,0.5],[1,0.5]];portConstraint=eastwest;dropTarget=0;" parent="cGAlOVvJwk_Bxds6Nf4A-57" vertex="1">
          <mxGeometry y="108" width="160" height="8" as="geometry" />
        </mxCell>
        <mxCell id="cGAlOVvJwk_Bxds6Nf4A-65" value="" style="shape=partialRectangle;top=0;left=0;bottom=0;html=1;align=left;verticalAlign=top;spacingLeft=4;spacingRight=4;whiteSpace=wrap;overflow=hidden;rotatable=0;points=[];portConstraint=eastwest;part=1;" parent="cGAlOVvJwk_Bxds6Nf4A-64" vertex="1" connectable="0">
          <mxGeometry width="30" height="8" as="geometry" />
        </mxCell>
        <mxCell id="oWk1t3dqGLM9DBorNE7X-8" value="Gender" style="shape=partialRectangle;top=0;left=0;right=0;bottom=0;html=1;align=left;verticalAlign=top;spacingLeft=34;spacingRight=4;whiteSpace=wrap;overflow=hidden;rotatable=0;points=[[0,0.5],[1,0.5]];portConstraint=eastwest;dropTarget=0;" vertex="1" parent="cGAlOVvJwk_Bxds6Nf4A-57">
          <mxGeometry y="116" width="160" height="26" as="geometry" />
        </mxCell>
        <mxCell id="oWk1t3dqGLM9DBorNE7X-9" value="" style="shape=partialRectangle;top=0;left=0;bottom=0;html=1;align=left;verticalAlign=top;spacingLeft=4;spacingRight=4;whiteSpace=wrap;overflow=hidden;rotatable=0;points=[];portConstraint=eastwest;part=1;" vertex="1" connectable="0" parent="oWk1t3dqGLM9DBorNE7X-8">
          <mxGeometry width="30" height="26" as="geometry" />
        </mxCell>
        <mxCell id="oWk1t3dqGLM9DBorNE7X-10" value="Mobile&lt;div&gt;&lt;br&gt;&lt;/div&gt;" style="shape=partialRectangle;top=0;left=0;right=0;bottom=0;html=1;align=left;verticalAlign=top;spacingLeft=34;spacingRight=4;whiteSpace=wrap;overflow=hidden;rotatable=0;points=[[0,0.5],[1,0.5]];portConstraint=eastwest;dropTarget=0;" vertex="1" parent="cGAlOVvJwk_Bxds6Nf4A-57">
          <mxGeometry y="142" width="160" height="26" as="geometry" />
        </mxCell>
        <mxCell id="oWk1t3dqGLM9DBorNE7X-11" value="" style="shape=partialRectangle;top=0;left=0;bottom=0;html=1;align=left;verticalAlign=top;spacingLeft=4;spacingRight=4;whiteSpace=wrap;overflow=hidden;rotatable=0;points=[];portConstraint=eastwest;part=1;" vertex="1" connectable="0" parent="oWk1t3dqGLM9DBorNE7X-10">
          <mxGeometry width="30" height="26" as="geometry" />
        </mxCell>
        <mxCell id="oWk1t3dqGLM9DBorNE7X-12" value="DateOfBrith" style="shape=partialRectangle;top=0;left=0;right=0;bottom=0;html=1;align=left;verticalAlign=top;spacingLeft=34;spacingRight=4;whiteSpace=wrap;overflow=hidden;rotatable=0;points=[[0,0.5],[1,0.5]];portConstraint=eastwest;dropTarget=0;" vertex="1" parent="cGAlOVvJwk_Bxds6Nf4A-57">
          <mxGeometry y="168" width="160" height="26" as="geometry" />
        </mxCell>
        <mxCell id="oWk1t3dqGLM9DBorNE7X-13" value="" style="shape=partialRectangle;top=0;left=0;bottom=0;html=1;align=left;verticalAlign=top;spacingLeft=4;spacingRight=4;whiteSpace=wrap;overflow=hidden;rotatable=0;points=[];portConstraint=eastwest;part=1;" vertex="1" connectable="0" parent="oWk1t3dqGLM9DBorNE7X-12">
          <mxGeometry width="30" height="26" as="geometry" />
        </mxCell>
        <mxCell id="oWk1t3dqGLM9DBorNE7X-14" value="Address" style="shape=partialRectangle;top=0;left=0;right=0;bottom=0;html=1;align=left;verticalAlign=top;spacingLeft=34;spacingRight=4;whiteSpace=wrap;overflow=hidden;rotatable=0;points=[[0,0.5],[1,0.5]];portConstraint=eastwest;dropTarget=0;" vertex="1" parent="cGAlOVvJwk_Bxds6Nf4A-57">
          <mxGeometry y="194" width="160" height="26" as="geometry" />
        </mxCell>
        <mxCell id="oWk1t3dqGLM9DBorNE7X-15" value="" style="shape=partialRectangle;top=0;left=0;bottom=0;html=1;align=left;verticalAlign=top;spacingLeft=4;spacingRight=4;whiteSpace=wrap;overflow=hidden;rotatable=0;points=[];portConstraint=eastwest;part=1;" vertex="1" connectable="0" parent="oWk1t3dqGLM9DBorNE7X-14">
          <mxGeometry width="30" height="26" as="geometry" />
        </mxCell>
        <mxCell id="oWk1t3dqGLM9DBorNE7X-16" value="ConactInforamtion" style="shape=partialRectangle;top=0;left=0;right=0;bottom=0;html=1;align=left;verticalAlign=top;spacingLeft=34;spacingRight=4;whiteSpace=wrap;overflow=hidden;rotatable=0;points=[[0,0.5],[1,0.5]];portConstraint=eastwest;dropTarget=0;" vertex="1" parent="cGAlOVvJwk_Bxds6Nf4A-57">
          <mxGeometry y="220" width="160" height="26" as="geometry" />
        </mxCell>
        <mxCell id="oWk1t3dqGLM9DBorNE7X-17" value="" style="shape=partialRectangle;top=0;left=0;bottom=0;html=1;align=left;verticalAlign=top;spacingLeft=4;spacingRight=4;whiteSpace=wrap;overflow=hidden;rotatable=0;points=[];portConstraint=eastwest;part=1;" vertex="1" connectable="0" parent="oWk1t3dqGLM9DBorNE7X-16">
          <mxGeometry width="30" height="26" as="geometry" />
        </mxCell>
        <mxCell id="cGAlOVvJwk_Bxds6Nf4A-70" style="edgeStyle=orthogonalEdgeStyle;rounded=0;orthogonalLoop=1;jettySize=auto;html=1;entryX=1;entryY=0.5;entryDx=0;entryDy=0;endArrow=ERzeroToMany;endFill=0;startArrow=ERmandOne;startFill=0;" parent="1" source="cGAlOVvJwk_Bxds6Nf4A-60" target="cGAlOVvJwk_Bxds6Nf4A-51" edge="1">
          <mxGeometry relative="1" as="geometry" />
        </mxCell>
        <mxCell id="cGAlOVvJwk_Bxds6Nf4A-71" value="Proccess" style="swimlane;html=1;fontStyle=0;childLayout=stackLayout;horizontal=1;startSize=26;horizontalStack=0;resizeParent=1;resizeLast=0;collapsible=1;marginBottom=0;swimlaneFillColor=#ffffff;align=center;rounded=0;shadow=0;comic=0;labelBackgroundColor=none;strokeWidth=1;fontFamily=Verdana;fontSize=14" parent="1" vertex="1">
          <mxGeometry x="240" y="282" width="230" height="190" as="geometry" />
        </mxCell>
        <mxCell id="cGAlOVvJwk_Bxds6Nf4A-72" value="Process ID" style="shape=partialRectangle;top=0;left=0;right=0;bottom=1;html=1;align=left;verticalAlign=middle;spacingLeft=34;spacingRight=4;whiteSpace=wrap;overflow=hidden;rotatable=0;points=[[0,0.5],[1,0.5]];portConstraint=eastwest;dropTarget=0;fontStyle=5;" parent="cGAlOVvJwk_Bxds6Nf4A-71" vertex="1">
          <mxGeometry y="26" width="230" height="30" as="geometry" />
        </mxCell>
        <mxCell id="cGAlOVvJwk_Bxds6Nf4A-73" value="PK" style="shape=partialRectangle;top=0;left=0;bottom=0;html=1;align=left;verticalAlign=middle;spacingLeft=4;spacingRight=4;whiteSpace=wrap;overflow=hidden;rotatable=0;points=[];portConstraint=eastwest;part=1;" parent="cGAlOVvJwk_Bxds6Nf4A-72" vertex="1" connectable="0">
          <mxGeometry width="30" height="30" as="geometry" />
        </mxCell>
        <mxCell id="cGAlOVvJwk_Bxds6Nf4A-76" value="User ID" style="shape=partialRectangle;top=0;left=0;right=0;bottom=0;html=1;align=left;verticalAlign=top;spacingLeft=34;spacingRight=4;whiteSpace=wrap;overflow=hidden;rotatable=0;points=[[0,0.5],[1,0.5]];portConstraint=eastwest;dropTarget=0;" parent="cGAlOVvJwk_Bxds6Nf4A-71" vertex="1">
          <mxGeometry y="56" width="230" height="26" as="geometry" />
        </mxCell>
        <mxCell id="cGAlOVvJwk_Bxds6Nf4A-77" value="FG" style="shape=partialRectangle;top=0;left=0;bottom=0;html=1;align=left;verticalAlign=top;spacingLeft=4;spacingRight=4;whiteSpace=wrap;overflow=hidden;rotatable=0;points=[];portConstraint=eastwest;part=1;" parent="cGAlOVvJwk_Bxds6Nf4A-76" vertex="1" connectable="0">
          <mxGeometry width="30" height="26" as="geometry" />
        </mxCell>
        <mxCell id="cGAlOVvJwk_Bxds6Nf4A-81" value="Date OF Proccess" style="shape=partialRectangle;top=0;left=0;right=0;bottom=0;html=1;align=left;verticalAlign=top;spacingLeft=34;spacingRight=4;whiteSpace=wrap;overflow=hidden;rotatable=0;points=[[0,0.5],[1,0.5]];portConstraint=eastwest;dropTarget=0;" parent="cGAlOVvJwk_Bxds6Nf4A-71" vertex="1">
          <mxGeometry y="82" width="230" height="30" as="geometry" />
        </mxCell>
        <mxCell id="cGAlOVvJwk_Bxds6Nf4A-82" value="" style="shape=partialRectangle;top=0;left=0;bottom=0;html=1;align=left;verticalAlign=top;spacingLeft=4;spacingRight=4;whiteSpace=wrap;overflow=hidden;rotatable=0;points=[];portConstraint=eastwest;part=1;" parent="cGAlOVvJwk_Bxds6Nf4A-81" vertex="1" connectable="0">
          <mxGeometry width="30" height="30" as="geometry" />
        </mxCell>
        <mxCell id="cGAlOVvJwk_Bxds6Nf4A-142" value="Book Copy ID" style="shape=partialRectangle;top=0;left=0;right=0;bottom=0;html=1;align=left;verticalAlign=top;spacingLeft=34;spacingRight=4;whiteSpace=wrap;overflow=hidden;rotatable=0;points=[[0,0.5],[1,0.5]];portConstraint=eastwest;dropTarget=0;" parent="cGAlOVvJwk_Bxds6Nf4A-71" vertex="1">
          <mxGeometry y="112" width="230" height="38" as="geometry" />
        </mxCell>
        <mxCell id="cGAlOVvJwk_Bxds6Nf4A-143" value="FG" style="shape=partialRectangle;top=0;left=0;bottom=0;html=1;align=left;verticalAlign=top;spacingLeft=4;spacingRight=4;whiteSpace=wrap;overflow=hidden;rotatable=0;points=[];portConstraint=eastwest;part=1;" parent="cGAlOVvJwk_Bxds6Nf4A-142" vertex="1" connectable="0">
          <mxGeometry width="30" height="38" as="geometry" />
        </mxCell>
        <mxCell id="XKE0ulMypkvAozORCoBl-15" value="Pyment ID" style="shape=partialRectangle;top=0;left=0;right=0;bottom=0;html=1;align=left;verticalAlign=top;spacingLeft=34;spacingRight=4;whiteSpace=wrap;overflow=hidden;rotatable=0;points=[[0,0.5],[1,0.5]];portConstraint=eastwest;dropTarget=0;" parent="cGAlOVvJwk_Bxds6Nf4A-71" vertex="1">
          <mxGeometry y="150" width="230" height="40" as="geometry" />
        </mxCell>
        <mxCell id="XKE0ulMypkvAozORCoBl-16" value="FG" style="shape=partialRectangle;top=0;left=0;bottom=0;html=1;align=left;verticalAlign=top;spacingLeft=4;spacingRight=4;whiteSpace=wrap;overflow=hidden;rotatable=0;points=[];portConstraint=eastwest;part=1;" parent="XKE0ulMypkvAozORCoBl-15" vertex="1" connectable="0">
          <mxGeometry width="30" height="40" as="geometry" />
        </mxCell>
        <mxCell id="cGAlOVvJwk_Bxds6Nf4A-89" style="edgeStyle=orthogonalEdgeStyle;rounded=0;orthogonalLoop=1;jettySize=auto;html=1;startArrow=ERzeroToMany;startFill=0;endArrow=ERone;endFill=0;" parent="1" source="cGAlOVvJwk_Bxds6Nf4A-76" target="cGAlOVvJwk_Bxds6Nf4A-47" edge="1">
          <mxGeometry relative="1" as="geometry" />
        </mxCell>
        <mxCell id="cGAlOVvJwk_Bxds6Nf4A-90" value="&lt;span class=&quot;fontstyle0&quot;&gt;Borrowing &lt;/span&gt; " style="swimlane;html=1;fontStyle=0;childLayout=stackLayout;horizontal=1;startSize=26;horizontalStack=0;resizeParent=1;resizeLast=0;collapsible=1;marginBottom=0;swimlaneFillColor=#ffffff;align=center;rounded=0;shadow=0;comic=0;labelBackgroundColor=none;strokeWidth=1;fontFamily=Verdana;fontSize=14" parent="1" vertex="1">
          <mxGeometry x="-90" y="71" width="300" height="150" as="geometry" />
        </mxCell>
        <mxCell id="cGAlOVvJwk_Bxds6Nf4A-91" value="Brroow ID" style="shape=partialRectangle;top=0;left=0;right=0;bottom=1;html=1;align=left;verticalAlign=middle;spacingLeft=34;spacingRight=4;whiteSpace=wrap;overflow=hidden;rotatable=0;points=[[0,0.5],[1,0.5]];portConstraint=eastwest;dropTarget=0;fontStyle=5;" parent="cGAlOVvJwk_Bxds6Nf4A-90" vertex="1">
          <mxGeometry y="26" width="300" height="30" as="geometry" />
        </mxCell>
        <mxCell id="cGAlOVvJwk_Bxds6Nf4A-92" value="PK" style="shape=partialRectangle;top=0;left=0;bottom=0;html=1;align=left;verticalAlign=middle;spacingLeft=4;spacingRight=4;whiteSpace=wrap;overflow=hidden;rotatable=0;points=[];portConstraint=eastwest;part=1;" parent="cGAlOVvJwk_Bxds6Nf4A-91" vertex="1" connectable="0">
          <mxGeometry width="30" height="30" as="geometry" />
        </mxCell>
        <mxCell id="cGAlOVvJwk_Bxds6Nf4A-110" value="Process ID" style="shape=partialRectangle;top=0;left=0;right=0;bottom=0;html=1;align=left;verticalAlign=top;spacingLeft=34;spacingRight=4;whiteSpace=wrap;overflow=hidden;rotatable=0;points=[[0,0.5],[1,0.5]];portConstraint=eastwest;dropTarget=0;" parent="cGAlOVvJwk_Bxds6Nf4A-90" vertex="1">
          <mxGeometry y="56" width="300" height="26" as="geometry" />
        </mxCell>
        <mxCell id="cGAlOVvJwk_Bxds6Nf4A-111" value="FG" style="shape=partialRectangle;top=0;left=0;bottom=0;html=1;align=left;verticalAlign=top;spacingLeft=4;spacingRight=4;whiteSpace=wrap;overflow=hidden;rotatable=0;points=[];portConstraint=eastwest;part=1;" parent="cGAlOVvJwk_Bxds6Nf4A-110" vertex="1" connectable="0">
          <mxGeometry width="30" height="26" as="geometry" />
        </mxCell>
        <mxCell id="cGAlOVvJwk_Bxds6Nf4A-113" value="&lt;span class=&quot;fontstyle0&quot;&gt;due &lt;/span&gt;&lt;span class=&quot;fontstyle0&quot;&gt;date&lt;/span&gt;" style="shape=partialRectangle;top=0;left=0;right=0;bottom=0;html=1;align=left;verticalAlign=top;spacingLeft=34;spacingRight=4;whiteSpace=wrap;overflow=hidden;rotatable=0;points=[[0,0.5],[1,0.5]];portConstraint=eastwest;dropTarget=0;" parent="cGAlOVvJwk_Bxds6Nf4A-90" vertex="1">
          <mxGeometry y="82" width="300" height="68" as="geometry" />
        </mxCell>
        <mxCell id="cGAlOVvJwk_Bxds6Nf4A-114" value="" style="shape=partialRectangle;top=0;left=0;bottom=0;html=1;align=left;verticalAlign=top;spacingLeft=4;spacingRight=4;whiteSpace=wrap;overflow=hidden;rotatable=0;points=[];portConstraint=eastwest;part=1;" parent="cGAlOVvJwk_Bxds6Nf4A-113" vertex="1" connectable="0">
          <mxGeometry width="30" height="68" as="geometry" />
        </mxCell>
        <mxCell id="cGAlOVvJwk_Bxds6Nf4A-112" style="edgeStyle=orthogonalEdgeStyle;rounded=0;orthogonalLoop=1;jettySize=auto;html=1;startArrow=ERone;startFill=0;endArrow=ERone;endFill=0;" parent="1" source="cGAlOVvJwk_Bxds6Nf4A-110" target="cGAlOVvJwk_Bxds6Nf4A-72" edge="1">
          <mxGeometry relative="1" as="geometry" />
        </mxCell>
        <mxCell id="cGAlOVvJwk_Bxds6Nf4A-115" value="&lt;span class=&quot;fontstyle0&quot;&gt; Returns&lt;/span&gt; " style="swimlane;html=1;fontStyle=0;childLayout=stackLayout;horizontal=1;startSize=26;horizontalStack=0;resizeParent=1;resizeLast=0;collapsible=1;marginBottom=0;swimlaneFillColor=#ffffff;align=center;rounded=0;shadow=0;comic=0;labelBackgroundColor=none;strokeWidth=1;fontFamily=Verdana;fontSize=14" parent="1" vertex="1">
          <mxGeometry x="-190" y="520" width="300" height="124" as="geometry" />
        </mxCell>
        <mxCell id="cGAlOVvJwk_Bxds6Nf4A-116" value="Return ID" style="shape=partialRectangle;top=0;left=0;right=0;bottom=1;html=1;align=left;verticalAlign=middle;spacingLeft=34;spacingRight=4;whiteSpace=wrap;overflow=hidden;rotatable=0;points=[[0,0.5],[1,0.5]];portConstraint=eastwest;dropTarget=0;fontStyle=5;" parent="cGAlOVvJwk_Bxds6Nf4A-115" vertex="1">
          <mxGeometry y="26" width="300" height="30" as="geometry" />
        </mxCell>
        <mxCell id="cGAlOVvJwk_Bxds6Nf4A-117" value="PK" style="shape=partialRectangle;top=0;left=0;bottom=0;html=1;align=left;verticalAlign=middle;spacingLeft=4;spacingRight=4;whiteSpace=wrap;overflow=hidden;rotatable=0;points=[];portConstraint=eastwest;part=1;" parent="cGAlOVvJwk_Bxds6Nf4A-116" vertex="1" connectable="0">
          <mxGeometry width="30" height="30" as="geometry" />
        </mxCell>
        <mxCell id="cGAlOVvJwk_Bxds6Nf4A-120" value="Process ID" style="shape=partialRectangle;top=0;left=0;right=0;bottom=0;html=1;align=left;verticalAlign=top;spacingLeft=34;spacingRight=4;whiteSpace=wrap;overflow=hidden;rotatable=0;points=[[0,0.5],[1,0.5]];portConstraint=eastwest;dropTarget=0;" parent="cGAlOVvJwk_Bxds6Nf4A-115" vertex="1">
          <mxGeometry y="56" width="300" height="34" as="geometry" />
        </mxCell>
        <mxCell id="cGAlOVvJwk_Bxds6Nf4A-121" value="FG" style="shape=partialRectangle;top=0;left=0;bottom=0;html=1;align=left;verticalAlign=top;spacingLeft=4;spacingRight=4;whiteSpace=wrap;overflow=hidden;rotatable=0;points=[];portConstraint=eastwest;part=1;" parent="cGAlOVvJwk_Bxds6Nf4A-120" vertex="1" connectable="0">
          <mxGeometry width="30" height="34" as="geometry" />
        </mxCell>
        <mxCell id="oWk1t3dqGLM9DBorNE7X-6" value="AcualReturnDate&lt;div&gt;&lt;br&gt;&lt;/div&gt;" style="shape=partialRectangle;top=0;left=0;right=0;bottom=0;html=1;align=left;verticalAlign=top;spacingLeft=34;spacingRight=4;whiteSpace=wrap;overflow=hidden;rotatable=0;points=[[0,0.5],[1,0.5]];portConstraint=eastwest;dropTarget=0;" vertex="1" parent="cGAlOVvJwk_Bxds6Nf4A-115">
          <mxGeometry y="90" width="300" height="34" as="geometry" />
        </mxCell>
        <mxCell id="oWk1t3dqGLM9DBorNE7X-7" value="" style="shape=partialRectangle;top=0;left=0;bottom=0;html=1;align=left;verticalAlign=top;spacingLeft=4;spacingRight=4;whiteSpace=wrap;overflow=hidden;rotatable=0;points=[];portConstraint=eastwest;part=1;" vertex="1" connectable="0" parent="oWk1t3dqGLM9DBorNE7X-6">
          <mxGeometry width="30" height="34" as="geometry" />
        </mxCell>
        <mxCell id="cGAlOVvJwk_Bxds6Nf4A-124" style="edgeStyle=orthogonalEdgeStyle;rounded=0;orthogonalLoop=1;jettySize=auto;html=1;startArrow=ERone;startFill=0;endArrow=ERone;endFill=0;" parent="1" source="cGAlOVvJwk_Bxds6Nf4A-116" target="cGAlOVvJwk_Bxds6Nf4A-72" edge="1">
          <mxGeometry relative="1" as="geometry" />
        </mxCell>
        <mxCell id="XKE0ulMypkvAozORCoBl-1" value="Payments" style="swimlane;html=1;fontStyle=0;childLayout=stackLayout;horizontal=1;startSize=26;horizontalStack=0;resizeParent=1;resizeLast=0;collapsible=1;marginBottom=0;swimlaneFillColor=#ffffff;align=center;rounded=0;shadow=0;comic=0;labelBackgroundColor=none;strokeWidth=1;fontFamily=Verdana;fontSize=14" parent="1" vertex="1">
          <mxGeometry x="550" y="550" width="160" height="190" as="geometry" />
        </mxCell>
        <mxCell id="XKE0ulMypkvAozORCoBl-2" value="ID" style="shape=partialRectangle;top=0;left=0;right=0;bottom=1;html=1;align=left;verticalAlign=middle;spacingLeft=34;spacingRight=4;whiteSpace=wrap;overflow=hidden;rotatable=0;points=[[0,0.5],[1,0.5]];portConstraint=eastwest;dropTarget=0;fontStyle=5;" parent="XKE0ulMypkvAozORCoBl-1" vertex="1">
          <mxGeometry y="26" width="160" height="30" as="geometry" />
        </mxCell>
        <mxCell id="XKE0ulMypkvAozORCoBl-3" value="PK" style="shape=partialRectangle;top=0;left=0;bottom=0;html=1;align=left;verticalAlign=middle;spacingLeft=4;spacingRight=4;whiteSpace=wrap;overflow=hidden;rotatable=0;points=[];portConstraint=eastwest;part=1;" parent="XKE0ulMypkvAozORCoBl-2" vertex="1" connectable="0">
          <mxGeometry width="30" height="30" as="geometry" />
        </mxCell>
        <mxCell id="XKE0ulMypkvAozORCoBl-4" value="Patient ID" style="shape=partialRectangle;top=0;left=0;right=0;bottom=0;html=1;align=left;verticalAlign=top;spacingLeft=34;spacingRight=4;whiteSpace=wrap;overflow=hidden;rotatable=0;points=[[0,0.5],[1,0.5]];portConstraint=eastwest;dropTarget=0;" parent="XKE0ulMypkvAozORCoBl-1" vertex="1">
          <mxGeometry y="56" width="160" height="26" as="geometry" />
        </mxCell>
        <mxCell id="XKE0ulMypkvAozORCoBl-5" value="FG" style="shape=partialRectangle;top=0;left=0;bottom=0;html=1;align=left;verticalAlign=top;spacingLeft=4;spacingRight=4;whiteSpace=wrap;overflow=hidden;rotatable=0;points=[];portConstraint=eastwest;part=1;" parent="XKE0ulMypkvAozORCoBl-4" vertex="1" connectable="0">
          <mxGeometry width="30" height="26" as="geometry" />
        </mxCell>
        <mxCell id="XKE0ulMypkvAozORCoBl-6" value="Payment Date" style="shape=partialRectangle;top=0;left=0;right=0;bottom=0;html=1;align=left;verticalAlign=top;spacingLeft=34;spacingRight=4;whiteSpace=wrap;overflow=hidden;rotatable=0;points=[[0,0.5],[1,0.5]];portConstraint=eastwest;dropTarget=0;" parent="XKE0ulMypkvAozORCoBl-1" vertex="1">
          <mxGeometry y="82" width="160" height="26" as="geometry" />
        </mxCell>
        <mxCell id="XKE0ulMypkvAozORCoBl-7" value="" style="shape=partialRectangle;top=0;left=0;bottom=0;html=1;align=left;verticalAlign=top;spacingLeft=4;spacingRight=4;whiteSpace=wrap;overflow=hidden;rotatable=0;points=[];portConstraint=eastwest;part=1;" parent="XKE0ulMypkvAozORCoBl-6" vertex="1" connectable="0">
          <mxGeometry width="30" height="26" as="geometry" />
        </mxCell>
        <mxCell id="XKE0ulMypkvAozORCoBl-8" value="Payment Method" style="shape=partialRectangle;top=0;left=0;right=0;bottom=0;html=1;align=left;verticalAlign=top;spacingLeft=34;spacingRight=4;whiteSpace=wrap;overflow=hidden;rotatable=0;points=[[0,0.5],[1,0.5]];portConstraint=eastwest;dropTarget=0;" parent="XKE0ulMypkvAozORCoBl-1" vertex="1">
          <mxGeometry y="108" width="160" height="26" as="geometry" />
        </mxCell>
        <mxCell id="XKE0ulMypkvAozORCoBl-9" value="" style="shape=partialRectangle;top=0;left=0;bottom=0;html=1;align=left;verticalAlign=top;spacingLeft=4;spacingRight=4;whiteSpace=wrap;overflow=hidden;rotatable=0;points=[];portConstraint=eastwest;part=1;" parent="XKE0ulMypkvAozORCoBl-8" vertex="1" connectable="0">
          <mxGeometry width="30" height="26" as="geometry" />
        </mxCell>
        <mxCell id="XKE0ulMypkvAozORCoBl-10" value="Amount Paid" style="shape=partialRectangle;top=0;left=0;right=0;bottom=0;html=1;align=left;verticalAlign=top;spacingLeft=34;spacingRight=4;whiteSpace=wrap;overflow=hidden;rotatable=0;points=[[0,0.5],[1,0.5]];portConstraint=eastwest;dropTarget=0;" parent="XKE0ulMypkvAozORCoBl-1" vertex="1">
          <mxGeometry y="134" width="160" height="26" as="geometry" />
        </mxCell>
        <mxCell id="XKE0ulMypkvAozORCoBl-11" value="" style="shape=partialRectangle;top=0;left=0;bottom=0;html=1;align=left;verticalAlign=top;spacingLeft=4;spacingRight=4;whiteSpace=wrap;overflow=hidden;rotatable=0;points=[];portConstraint=eastwest;part=1;" parent="XKE0ulMypkvAozORCoBl-10" vertex="1" connectable="0">
          <mxGeometry width="30" height="26" as="geometry" />
        </mxCell>
        <mxCell id="XKE0ulMypkvAozORCoBl-12" value="Additional notes" style="shape=partialRectangle;top=0;left=0;right=0;bottom=0;html=1;align=left;verticalAlign=top;spacingLeft=34;spacingRight=4;whiteSpace=wrap;overflow=hidden;rotatable=0;points=[[0,0.5],[1,0.5]];portConstraint=eastwest;dropTarget=0;" parent="XKE0ulMypkvAozORCoBl-1" vertex="1">
          <mxGeometry y="160" width="160" height="26" as="geometry" />
        </mxCell>
        <mxCell id="XKE0ulMypkvAozORCoBl-13" value="" style="shape=partialRectangle;top=0;left=0;bottom=0;html=1;align=left;verticalAlign=top;spacingLeft=4;spacingRight=4;whiteSpace=wrap;overflow=hidden;rotatable=0;points=[];portConstraint=eastwest;part=1;" parent="XKE0ulMypkvAozORCoBl-12" vertex="1" connectable="0">
          <mxGeometry width="30" height="26" as="geometry" />
        </mxCell>
        <mxCell id="XKE0ulMypkvAozORCoBl-18" style="edgeStyle=orthogonalEdgeStyle;rounded=0;orthogonalLoop=1;jettySize=auto;html=1;startArrow=ERone;startFill=0;endArrow=ERoneToMany;endFill=0;" parent="1" source="XKE0ulMypkvAozORCoBl-2" target="XKE0ulMypkvAozORCoBl-15" edge="1">
          <mxGeometry relative="1" as="geometry" />
        </mxCell>
        <mxCell id="XKE0ulMypkvAozORCoBl-25" style="edgeStyle=orthogonalEdgeStyle;rounded=0;orthogonalLoop=1;jettySize=auto;html=1;entryX=1;entryY=0.5;entryDx=0;entryDy=0;endArrow=ERzeroToMany;endFill=0;startArrow=ERmandOne;startFill=0;" parent="1" source="cGAlOVvJwk_Bxds6Nf4A-142" target="cGAlOVvJwk_Bxds6Nf4A-36" edge="1">
          <mxGeometry relative="1" as="geometry" />
        </mxCell>
        <mxCell id="oWk1t3dqGLM9DBorNE7X-28" value="Settings" style="swimlane;html=1;fontStyle=0;childLayout=stackLayout;horizontal=1;startSize=26;horizontalStack=0;resizeParent=1;resizeLast=0;collapsible=1;marginBottom=0;swimlaneFillColor=#ffffff;align=center;rounded=0;shadow=0;comic=0;labelBackgroundColor=none;strokeWidth=1;fontFamily=Verdana;fontSize=14" vertex="1" parent="1">
          <mxGeometry x="260" y="620" width="240" height="158" as="geometry" />
        </mxCell>
        <mxCell id="oWk1t3dqGLM9DBorNE7X-29" value="DefualtBorrowDays" style="shape=partialRectangle;top=0;left=0;right=0;bottom=1;html=1;align=left;verticalAlign=middle;spacingLeft=34;spacingRight=4;whiteSpace=wrap;overflow=hidden;rotatable=0;points=[[0,0.5],[1,0.5]];portConstraint=eastwest;dropTarget=0;fontStyle=5;" vertex="1" parent="oWk1t3dqGLM9DBorNE7X-28">
          <mxGeometry y="26" width="240" height="30" as="geometry" />
        </mxCell>
        <mxCell id="oWk1t3dqGLM9DBorNE7X-31" value="DeFaultFinePeDay&lt;div&gt;&lt;br&gt;&lt;/div&gt;" style="shape=partialRectangle;top=0;left=0;right=0;bottom=0;html=1;align=left;verticalAlign=top;spacingLeft=34;spacingRight=4;whiteSpace=wrap;overflow=hidden;rotatable=0;points=[[0,0.5],[1,0.5]];portConstraint=eastwest;dropTarget=0;" vertex="1" parent="oWk1t3dqGLM9DBorNE7X-28">
          <mxGeometry y="56" width="240" height="34" as="geometry" />
        </mxCell>
        <mxCell id="oWk1t3dqGLM9DBorNE7X-32" value="" style="shape=partialRectangle;top=0;left=0;bottom=0;html=1;align=left;verticalAlign=top;spacingLeft=4;spacingRight=4;whiteSpace=wrap;overflow=hidden;rotatable=0;points=[];portConstraint=eastwest;part=1;" vertex="1" connectable="0" parent="oWk1t3dqGLM9DBorNE7X-31">
          <mxGeometry width="30" height="34" as="geometry" />
        </mxCell>
        <mxCell id="oWk1t3dqGLM9DBorNE7X-33" value="LateFinePerDay" style="shape=partialRectangle;top=0;left=0;right=0;bottom=0;html=1;align=left;verticalAlign=top;spacingLeft=34;spacingRight=4;whiteSpace=wrap;overflow=hidden;rotatable=0;points=[[0,0.5],[1,0.5]];portConstraint=eastwest;dropTarget=0;" vertex="1" parent="oWk1t3dqGLM9DBorNE7X-28">
          <mxGeometry y="90" width="240" height="34" as="geometry" />
        </mxCell>
        <mxCell id="oWk1t3dqGLM9DBorNE7X-34" value="" style="shape=partialRectangle;top=0;left=0;bottom=0;html=1;align=left;verticalAlign=top;spacingLeft=4;spacingRight=4;whiteSpace=wrap;overflow=hidden;rotatable=0;points=[];portConstraint=eastwest;part=1;" vertex="1" connectable="0" parent="oWk1t3dqGLM9DBorNE7X-33">
          <mxGeometry width="30" height="34" as="geometry" />
        </mxCell>
        <mxCell id="oWk1t3dqGLM9DBorNE7X-37" value="ExtendedBorrowDays" style="shape=partialRectangle;top=0;left=0;right=0;bottom=0;html=1;align=left;verticalAlign=top;spacingLeft=34;spacingRight=4;whiteSpace=wrap;overflow=hidden;rotatable=0;points=[[0,0.5],[1,0.5]];portConstraint=eastwest;dropTarget=0;" vertex="1" parent="oWk1t3dqGLM9DBorNE7X-28">
          <mxGeometry y="124" width="240" height="34" as="geometry" />
        </mxCell>
        <mxCell id="oWk1t3dqGLM9DBorNE7X-38" value="" style="shape=partialRectangle;top=0;left=0;bottom=0;html=1;align=left;verticalAlign=top;spacingLeft=4;spacingRight=4;whiteSpace=wrap;overflow=hidden;rotatable=0;points=[];portConstraint=eastwest;part=1;" vertex="1" connectable="0" parent="oWk1t3dqGLM9DBorNE7X-37">
          <mxGeometry width="30" height="34" as="geometry" />
        </mxCell>
        <mxCell id="oWk1t3dqGLM9DBorNE7X-39" value="Permissions" style="swimlane;html=1;fontStyle=0;childLayout=stackLayout;horizontal=1;startSize=26;horizontalStack=0;resizeParent=1;resizeLast=0;collapsible=1;marginBottom=0;swimlaneFillColor=#ffffff;align=center;rounded=0;shadow=0;comic=0;labelBackgroundColor=none;strokeWidth=1;fontFamily=Verdana;fontSize=14" vertex="1" parent="1">
          <mxGeometry x="-510" y="520" width="240" height="264" as="geometry" />
        </mxCell>
        <mxCell id="oWk1t3dqGLM9DBorNE7X-41" value="FullAccess&lt;div&gt;&lt;br&gt;&lt;/div&gt;" style="shape=partialRectangle;top=0;left=0;right=0;bottom=0;html=1;align=left;verticalAlign=top;spacingLeft=34;spacingRight=4;whiteSpace=wrap;overflow=hidden;rotatable=0;points=[[0,0.5],[1,0.5]];portConstraint=eastwest;dropTarget=0;" vertex="1" parent="oWk1t3dqGLM9DBorNE7X-39">
          <mxGeometry y="26" width="240" height="34" as="geometry" />
        </mxCell>
        <mxCell id="oWk1t3dqGLM9DBorNE7X-42" value="" style="shape=partialRectangle;top=0;left=0;bottom=0;html=1;align=left;verticalAlign=top;spacingLeft=4;spacingRight=4;whiteSpace=wrap;overflow=hidden;rotatable=0;points=[];portConstraint=eastwest;part=1;" vertex="1" connectable="0" parent="oWk1t3dqGLM9DBorNE7X-41">
          <mxGeometry width="30" height="34" as="geometry" />
        </mxCell>
        <mxCell id="oWk1t3dqGLM9DBorNE7X-43" value="ManageReaders&lt;div&gt;&lt;br&gt;&lt;/div&gt;" style="shape=partialRectangle;top=0;left=0;right=0;bottom=0;html=1;align=left;verticalAlign=top;spacingLeft=34;spacingRight=4;whiteSpace=wrap;overflow=hidden;rotatable=0;points=[[0,0.5],[1,0.5]];portConstraint=eastwest;dropTarget=0;" vertex="1" parent="oWk1t3dqGLM9DBorNE7X-39">
          <mxGeometry y="60" width="240" height="34" as="geometry" />
        </mxCell>
        <mxCell id="oWk1t3dqGLM9DBorNE7X-44" value="" style="shape=partialRectangle;top=0;left=0;bottom=0;html=1;align=left;verticalAlign=top;spacingLeft=4;spacingRight=4;whiteSpace=wrap;overflow=hidden;rotatable=0;points=[];portConstraint=eastwest;part=1;" vertex="1" connectable="0" parent="oWk1t3dqGLM9DBorNE7X-43">
          <mxGeometry width="30" height="34" as="geometry" />
        </mxCell>
        <mxCell id="oWk1t3dqGLM9DBorNE7X-45" value="ManageBooks&lt;div&gt;&lt;br&gt;&lt;/div&gt;" style="shape=partialRectangle;top=0;left=0;right=0;bottom=0;html=1;align=left;verticalAlign=top;spacingLeft=34;spacingRight=4;whiteSpace=wrap;overflow=hidden;rotatable=0;points=[[0,0.5],[1,0.5]];portConstraint=eastwest;dropTarget=0;" vertex="1" parent="oWk1t3dqGLM9DBorNE7X-39">
          <mxGeometry y="94" width="240" height="34" as="geometry" />
        </mxCell>
        <mxCell id="oWk1t3dqGLM9DBorNE7X-46" value="" style="shape=partialRectangle;top=0;left=0;bottom=0;html=1;align=left;verticalAlign=top;spacingLeft=4;spacingRight=4;whiteSpace=wrap;overflow=hidden;rotatable=0;points=[];portConstraint=eastwest;part=1;" vertex="1" connectable="0" parent="oWk1t3dqGLM9DBorNE7X-45">
          <mxGeometry width="30" height="34" as="geometry" />
        </mxCell>
        <mxCell id="oWk1t3dqGLM9DBorNE7X-47" value="ManageUsers" style="shape=partialRectangle;top=0;left=0;right=0;bottom=0;html=1;align=left;verticalAlign=top;spacingLeft=34;spacingRight=4;whiteSpace=wrap;overflow=hidden;rotatable=0;points=[[0,0.5],[1,0.5]];portConstraint=eastwest;dropTarget=0;" vertex="1" parent="oWk1t3dqGLM9DBorNE7X-39">
          <mxGeometry y="128" width="240" height="34" as="geometry" />
        </mxCell>
        <mxCell id="oWk1t3dqGLM9DBorNE7X-48" value="" style="shape=partialRectangle;top=0;left=0;bottom=0;html=1;align=left;verticalAlign=top;spacingLeft=4;spacingRight=4;whiteSpace=wrap;overflow=hidden;rotatable=0;points=[];portConstraint=eastwest;part=1;" vertex="1" connectable="0" parent="oWk1t3dqGLM9DBorNE7X-47">
          <mxGeometry width="30" height="34" as="geometry" />
        </mxCell>
        <mxCell id="oWk1t3dqGLM9DBorNE7X-49" value="ManagePayment&lt;div&gt;&lt;br&gt;&lt;/div&gt;" style="shape=partialRectangle;top=0;left=0;right=0;bottom=0;html=1;align=left;verticalAlign=top;spacingLeft=34;spacingRight=4;whiteSpace=wrap;overflow=hidden;rotatable=0;points=[[0,0.5],[1,0.5]];portConstraint=eastwest;dropTarget=0;" vertex="1" parent="oWk1t3dqGLM9DBorNE7X-39">
          <mxGeometry y="162" width="240" height="34" as="geometry" />
        </mxCell>
        <mxCell id="oWk1t3dqGLM9DBorNE7X-50" value="" style="shape=partialRectangle;top=0;left=0;bottom=0;html=1;align=left;verticalAlign=top;spacingLeft=4;spacingRight=4;whiteSpace=wrap;overflow=hidden;rotatable=0;points=[];portConstraint=eastwest;part=1;" vertex="1" connectable="0" parent="oWk1t3dqGLM9DBorNE7X-49">
          <mxGeometry width="30" height="34" as="geometry" />
        </mxCell>
        <mxCell id="oWk1t3dqGLM9DBorNE7X-51" value="LibrarySettings&lt;div&gt;&lt;br&gt;&lt;/div&gt;" style="shape=partialRectangle;top=0;left=0;right=0;bottom=0;html=1;align=left;verticalAlign=top;spacingLeft=34;spacingRight=4;whiteSpace=wrap;overflow=hidden;rotatable=0;points=[[0,0.5],[1,0.5]];portConstraint=eastwest;dropTarget=0;" vertex="1" parent="oWk1t3dqGLM9DBorNE7X-39">
          <mxGeometry y="196" width="240" height="34" as="geometry" />
        </mxCell>
        <mxCell id="oWk1t3dqGLM9DBorNE7X-52" value="" style="shape=partialRectangle;top=0;left=0;bottom=0;html=1;align=left;verticalAlign=top;spacingLeft=4;spacingRight=4;whiteSpace=wrap;overflow=hidden;rotatable=0;points=[];portConstraint=eastwest;part=1;" vertex="1" connectable="0" parent="oWk1t3dqGLM9DBorNE7X-51">
          <mxGeometry width="30" height="34" as="geometry" />
        </mxCell>
        <mxCell id="oWk1t3dqGLM9DBorNE7X-53" value="ManageBorrows&lt;div&gt;&lt;br&gt;&lt;/div&gt;" style="shape=partialRectangle;top=0;left=0;right=0;bottom=0;html=1;align=left;verticalAlign=top;spacingLeft=34;spacingRight=4;whiteSpace=wrap;overflow=hidden;rotatable=0;points=[[0,0.5],[1,0.5]];portConstraint=eastwest;dropTarget=0;" vertex="1" parent="oWk1t3dqGLM9DBorNE7X-39">
          <mxGeometry y="230" width="240" height="34" as="geometry" />
        </mxCell>
        <mxCell id="oWk1t3dqGLM9DBorNE7X-54" value="" style="shape=partialRectangle;top=0;left=0;bottom=0;html=1;align=left;verticalAlign=top;spacingLeft=4;spacingRight=4;whiteSpace=wrap;overflow=hidden;rotatable=0;points=[];portConstraint=eastwest;part=1;" vertex="1" connectable="0" parent="oWk1t3dqGLM9DBorNE7X-53">
          <mxGeometry width="30" height="34" as="geometry" />
        </mxCell>
      </root>
    </mxGraphModel>
  </diagram>
</mxfile>
